# xmcd
#
# Track frame offsets:
#	150
#	19029
#	40537
#	59417
#	71211
#	91835
#	107221
#	123669
#	142894
#	156748
#	174104
#
# Disc length: 2518 seconds
#
# Revision: 0
# Processed by: cddbd v1.5.2PL0 Copyright (c) Steve Scherf et al.
# Submitted via: audiograbber 1.83.01
#
DISCID=9309d40b
DTITLE=Smoke Fairies - Through Low Light And Trees
DYEAR=2010
DGENRE=Blues
TTITLE0=Summer Fades
TTITLE1=Devil In My Mind
TTITLE2=Hotel Room
TTITLE3=Dragon
TTITLE4=Erie Lackawanna
TTITLE5=Strange Moon Rising
TTITLE6=Morning Blues
TTITLE7=Storm Song
TTITLE8=Blue Skies Fall
TTITLE9=Feeling Is Turning Blue
TTITLE10=After The Rain
EXTD=
EXTT0=
EXTT1=
EXTT2=
EXTT3=
EXTT4=
EXTT5=
EXTT6=
EXTT7=
EXTT8=
EXTT9=
EXTT10=
PLAYORDER=
